<?xml version="1.0" encoding="utf-8"?>
<!-- Generator: Adobe Illustrator 24.1.2, SVG Export Plug-In . SVG Version: 6.00 Build 0)  -->
<svg version="1.1" id="Layer_1" xmlns="http://www.w3.org/2000/svg" xmlns:xlink="http://www.w3.org/1999/xlink" x="0px" y="0px"
	 viewBox="0 0 1079.99 1080" style="enable-background:new 0 0 1079.99 1080;" xml:space="preserve">
<style type="text/css">
	.st0{fill:#8690FF;}
	.st1{fill:#A9C0FF;}
	.st2{fill:none;stroke:#000000;stroke-width:2;stroke-miterlimit:10;}
</style>
<path class="st0" d="M0,289.35c0,0,101.26-75.13,189.3-66.91S336.04,0,336.04,0H0V289.35z"/>
<path class="st0" d="M0,608.65c0,0,86.39-161.22,203.78-145.57c117.39,15.65,40.7,64.17,241.04,253.57S213.17,895.09,213.17,895.09
	S9.09,914.91,0,848.13V608.65z"/>
<path class="st0" d="M703.09,1080c0,0-32.87-209.96,59.48-300.74s183.13-64.17,180-175.3c-3.13-111.13,137.43-48.52,137.43-48.52
	V1080H703.09z"/>
<path class="st1" d="M291.43,361.35c0,0-169.04-166.98-70.43-207.92s189.39,35.75,189.39,35.75s167.48,125.22,76.7,226.96
	s-303.65,302.09-253.57,108S301.87,431.26,291.43,361.35z"/>
<path class="st1" d="M678.04,0c0,0-24.65,158.37,77.09,153.42c101.74-4.95,73.57,59.23,137.74,68.62
	c64.17,9.39,59.79,104.58,118.96,100.03c59.17-4.55,68.17-68.72,68.17-68.72V0L678.04,0z"/>
<path class="st1" d="M0,777.7c0,0,136.48-115.83,258.57,18.78s152.56,131.48,255.49,114.26S701.52,1066.13,626.39,1080H0V777.7z"/>
<path class="st0" d="M809.35,233.52c0,0,173.74,84.52,54.78,194.09s126.78,87.08,150.26,52.15c23.48-34.93,60.04-2.97,65.6-62.06
	V171.36C1079.99,171.36,712.31,156.83,809.35,233.52z"/>
<path class="st2" d="M0,234.57c0,0,167.78-100.17,271.09-62.61s114.26-25.04,134.61-75.13C426.04,46.74,385.35,0,385.35,0"/>
<path class="st2" d="M269.52,449c0,0,82.96-84.52,32.87-159.65s-29.74-176.87,139.3-111.13s183.13,233.22,126.78,248.87
	c-56.35,15.65-169.04,106.43-225.39,82.96C286.74,486.57,252.81,469.49,269.52,449z"/>
<path class="st2" d="M710.91,0c0,0-62.61,118.74,128.35,110.91s177.82,65.74,240.73,97.04"/>
<path class="st2" d="M1081.52,450.57c0,0-214.08,51.65-151.47-31.3s19.61-173.74-39.5-192.52C831.43,207.96,843.96,43.61,953.52,89
	s127.99,46.96,127.99,46.96"/>
<path class="st2" d="M771.96,1080c0,0-53.22-112.91,17.22-161.43c70.43-48.52,8.9-170.49-18.24-238.64
	c-27.15-68.15,166.28-184.92,309.07-152.05"/>
<path class="st2" d="M0,840.3c0,0,252.3-158.09,336.04-70.43s42.21,216,178.02,181.57C649.87,917,696.83,980.04,663.96,1080"/>
<path class="st2" d="M0,802.29c0,0,153.7-29.29,138.04-149.81s84.52-101.74,95.48-201.91c10.96-100.17-121.98-78.03-194.09-56.35
	C9.5,403.22,0,417.7,0,417.7"/>
</svg>
