<?xml version="1.0" encoding="utf-8"?>
<!-- Generator: Adobe Illustrator 24.1.2, SVG Export Plug-In . SVG Version: 6.00 Build 0)  -->
<svg version="1.1" xmlns="http://www.w3.org/2000/svg" xmlns:xlink="http://www.w3.org/1999/xlink" x="0px" y="0px"
	 viewBox="0 0 288 560" style="enable-background:new 0 0 288 560;" xml:space="preserve">
<style type="text/css">
	.st0{fill:none;stroke:#000000;stroke-width:20;stroke-miterlimit:10;}
</style>
<g id="Layer_1">
	<path class="st0" d="M93.27,337.06c-33.75,37.7-71.93,92.44-71.93,147.18c0,0,0,49.06,122.65,49.06s122.65-49.06,122.65-49.06
		C266.65,386.12,144,288,144,288S21.35,189.88,21.35,91.76c0,0,0-49.06,122.65-49.06s122.65,49.06,122.65,49.06
		c0,54.74-38.17,109.48-71.93,147.18"/>
	<path d="M144,72.29c79.04,0,79.04,31.62,79.04,31.62c0,38.47-29.26,76.95-52.18,101.18c-14.58,15.42-39.15,15.42-53.73,0.01
		c-22.92-24.23-52.18-62.71-52.18-101.19C64.96,103.91,64.96,72.29,144,72.29z"/>
	<path d="M144,482.97c56.53,0,56.53-22.61,56.53-22.61c0-27.52-20.93-55.04-37.32-72.37c-10.43-11.03-28-11.03-38.43,0
		c-16.39,17.33-37.32,44.85-37.32,72.37C87.47,460.36,87.47,482.97,144,482.97z"/>
</g>
<g id="Layer_2">
</g>
</svg>
