<?xml version="1.0" encoding="utf-8"?>
<!-- Generator: Adobe Illustrator 24.1.2, SVG Export Plug-In . SVG Version: 6.00 Build 0)  -->
<svg version="1.1" xmlns="http://www.w3.org/2000/svg" xmlns:xlink="http://www.w3.org/1999/xlink" x="0px" y="0px"
	 viewBox="0 0 288 560" style="enable-background:new 0 0 288 560;" xml:space="preserve">
<style type="text/css">
	.st0{fill:none;stroke:#000000;stroke-width:20;stroke-miterlimit:10;}
</style>
<g id="Layer_1">
	<path class="st0" d="M93.27,337.06c-33.75,37.7-71.93,92.44-71.93,147.18c0,0,0,49.06,122.65,49.06s122.65-49.06,122.65-49.06
		C266.65,386.12,144,288,144,288S21.35,189.88,21.35,91.76c0,0,0-49.06,122.65-49.06s122.65,49.06,122.65,49.06
		c0,54.74-38.17,109.48-71.93,147.18"/>
	<path d="M144,66.14c85.79,0,85.79,34.31,85.79,34.31c0,41.76-31.76,83.51-56.63,109.81c-15.82,16.73-42.49,16.74-58.31,0.01
		c-24.87-26.3-56.63-68.06-56.63-109.82C58.21,100.45,58.21,66.14,144,66.14z"/>
</g>
<g id="Layer_2">
</g>
</svg>
