<?xml version="1.0" encoding="utf-8"?>
<!-- Generator: Adobe Illustrator 24.1.2, SVG Export Plug-In . SVG Version: 6.00 Build 0)  -->
<svg version="1.1" xmlns="http://www.w3.org/2000/svg" xmlns:xlink="http://www.w3.org/1999/xlink" x="0px" y="0px"
	 viewBox="0 0 288 560" style="enable-background:new 0 0 288 560;" xml:space="preserve">
<style type="text/css">
	.st0{fill:none;stroke:#000000;stroke-width:20;stroke-miterlimit:10;}
</style>
<g id="Layer_1">
	<path class="st0" d="M194.73,238.94c33.75-37.7,71.93-92.44,71.93-147.18c0,0,0-49.06-122.65-49.06S21.35,91.76,21.35,91.76
		C21.35,189.88,144,288,144,288s122.65,98.12,122.65,196.24c0,0,0,49.06-122.65,49.06S21.35,484.24,21.35,484.24
		c0-54.74,38.17-109.48,71.93-147.18"/>
	<path d="M144,509.86c-85.79,0-85.79-34.31-85.79-34.31c0-41.76,31.76-83.51,56.63-109.81c15.82-16.73,42.49-16.74,58.31-0.01
		c24.87,26.3,56.63,68.06,56.63,109.82C229.79,475.55,229.79,509.86,144,509.86z"/>
</g>
<g id="Layer_2">
</g>
</svg>
