<?xml version="1.0" encoding="utf-8"?>
<!-- Generator: Adobe Illustrator 24.1.2, SVG Export Plug-In . SVG Version: 6.00 Build 0)  -->
<svg version="1.1" xmlns="http://www.w3.org/2000/svg" xmlns:xlink="http://www.w3.org/1999/xlink" x="0px" y="0px"
	 viewBox="0 0 288 560" style="enable-background:new 0 0 288 560;" xml:space="preserve">
<style type="text/css">
	.st0{fill:none;stroke:#000000;stroke-width:20;stroke-miterlimit:10;}
</style>
<g id="Layer_1">
	<path class="st0" d="M194.73,238.94c33.75-37.7,71.93-92.44,71.93-147.18c0,0,0-49.06-122.65-49.06S21.35,91.76,21.35,91.76
		C21.35,189.88,144,288,144,288s122.65,98.12,122.65,196.24c0,0,0,49.06-122.65,49.06S21.35,484.24,21.35,484.24
		c0-54.74,38.17-109.48,71.93-147.18"/>
	<path d="M144,503.71c-79.04,0-79.04-31.62-79.04-31.62c0-38.47,29.26-76.95,52.18-101.18c14.58-15.42,39.15-15.42,53.73-0.01
		c22.92,24.23,52.18,62.71,52.18,101.19C223.04,472.09,223.04,503.71,144,503.71z"/>
	<path d="M144,93.03c-56.53,0-56.53,22.61-56.53,22.61c0,27.52,20.93,55.04,37.32,72.37c10.43,11.03,28,11.03,38.43,0
		c16.39-17.33,37.32-44.85,37.32-72.37C200.53,115.64,200.53,93.03,144,93.03z"/>
</g>
<g id="Layer_2">
</g>
</svg>
