<?xml version="1.0" encoding="utf-8"?>
<!-- Generator: Adobe Illustrator 24.1.2, SVG Export Plug-In . SVG Version: 6.00 Build 0)  -->
<svg version="1.1" id="Layer_1" xmlns="http://www.w3.org/2000/svg" xmlns:xlink="http://www.w3.org/1999/xlink" x="0px" y="0px"
	 viewBox="0 0 288 560" style="enable-background:new 0 0 288 560;" xml:space="preserve">
<style type="text/css">
	.st0{fill:none;stroke:#000000;stroke-width:20;stroke-miterlimit:10;}
</style>
<path class="st0" d="M92.3,337.97c-34.4,38.43-73.31,94.22-73.31,150.01c0,0,0,50,125.01,50s125.01-50,125.01-50
	C269,387.97,144,287.97,144,287.97S18.99,187.96,18.99,87.96c0,0,0-50,125.01-50s125.01,50,125.01,50
	c0,55.79-38.91,111.58-73.31,150.01"/>
<path d="M144,68.12c80.56,0,80.56,32.22,80.56,32.22c0,39.21-29.82,78.42-53.18,103.12c-14.86,15.71-39.9,15.72-54.76,0.01
	c-23.36-24.7-53.18-63.91-53.18-103.13C63.44,100.35,63.44,68.12,144,68.12z"/>
<path d="M144,507.63c80.56,0,80.56-32.22,80.56-32.22c0-39.21-29.82-78.42-53.18-103.12c-14.86-15.71-39.9-15.72-54.76-0.01
	c-23.36,24.7-53.18,63.91-53.18,103.13C63.44,475.41,63.44,507.63,144,507.63z"/>
</svg>
